<svg width="64" height="64" viewBox="0 0 64 64" fill="none" xmlns="http://www.w3.org/2000/svg">
  <defs>
    <linearGradient id="coil" x1="8" y1="56" x2="56" y2="8" gradientUnits="userSpaceOnUse">
      <stop offset="0" stop-color="#1BA6DF"/>
      <stop offset="0.55" stop-color="#8A7BE8"/>
      <stop offset="1" stop-color="#F0457A"/>
    </linearGradient>
  </defs>
  <path d="M 32.00 30.80 L 32.11 30.68 L 32.24 30.57 L 32.38 30.47 L 32.55 30.38 L 32.73 30.32 L 32.92 30.27 L 33.13 30.25 L 33.35 30.24 L 33.57 30.26 L 33.80 30.31 L 34.03 30.39 L 34.26 30.49 L 34.49 30.61 L 34.71 30.77 L 34.92 30.95 L 35.11 31.16 L 35.30 31.39 L 35.46 31.65 L 35.60 31.93 L 35.72 32.23 L 35.82 32.56 L 35.88 32.89 L 35.92 33.25 L 35.92 33.61 L 35.89 33.98 L 35.82 34.36 L 35.72 34.74 L 35.58 35.12 L 35.40 35.49 L 35.19 35.85 L 34.93 36.20 L 34.64 36.54 L 34.32 36.85 L 33.96 37.14 L 33.57 37.41 L 33.15 37.64 L 32.70 37.84 L 32.23 38.01 L 31.73 38.13 L 31.21 38.21 L 30.68 38.25 L 30.14 38.25 L 29.59 38.19 L 29.04 38.09 L 28.49 37.94 L 27.94 37.73 L 27.41 37.48 L 26.89 37.18 L 26.39 36.83 L 25.91 36.43 L 25.46 35.98 L 25.04 35.49 L 24.66 34.96 L 24.33 34.39 L 24.03 33.78 L 23.79 33.14 L 23.60 32.48 L 23.46 31.79 L 23.38 31.08 L 23.36 30.35 L 23.40 29.62 L 23.50 28.88 L 23.67 28.15 L 23.90 27.42 L 24.20 26.70 L 24.56 26.00 L 24.98 25.33 L 25.47 24.68 L 26.01 24.07 L 26.61 23.50 L 27.26 22.98 L 27.96 22.51 L 28.71 22.09 L 29.50 21.73 L 30.33 21.44 L 31.18 21.21 L 32.07 21.05 L 32.97 20.97 L 33.89 20.96 L 34.82 21.03 L 35.74 21.17 L 36.67 21.40 L 37.58 21.70 L 38.47 22.09 L 39.33 22.55 L 40.16 23.08 L 40.96 23.69 L 41.70 24.37 L 42.40 25.12 L 43.04 25.93 L 43.61 26.80 L 44.12 27.72 L 44.55 28.69 L 44.90 29.71 L 45.17 30.76 L 45.35 31.83 L 45.45 32.93 L 45.45 34.04 L 45.36 35.16 L 45.18 36.28 L 44.91 37.39 L 44.54 38.49 L 44.07 39.55 L 43.52 40.59 L 42.87 41.58 L 42.14 42.53 L 41.33 43.42 L 40.44 44.25 L 39.47 45.01 L 38.44 45.69 L 37.35 46.29 L 36.20 46.80 L 35.00 47.21 L 33.76 47.53 L 32.50 47.75 L 31.20 47.87 L 29.89 47.87 L 28.58 47.77 L 27.27 47.56 L 25.97 47.24 L 24.69 46.81 L 23.44 46.27 L 22.23 45.63 L 21.07 44.88 L 19.96 44.04 L 18.92 43.10 L 17.96 42.07 L 17.07 40.95 L 16.28 39.76 L 15.58 38.50 L 14.98 37.18 L 14.50 35.80 L 14.12 34.37 L 13.86 32.91 L 13.72 31.43 L 13.70 29.92 L 13.81 28.41 L 14.04 26.90 L 14.39 25.41 L 14.88 23.94 L 15.48 22.51 L 16.21 21.12 L 17.05 19.79 L 18.00 18.52 L 19.07 17.33 L 20.23 16.22 L 21.49 15.21 L 22.84 14.29 L 24.26 13.49 L 25.76 12.80 L 27.32 12.23 L 28.93 11.79 L 30.58 11.48 L 32.26 11.30 L 33.96 11.27 L 35.67 11.37 L 37.37 11.62 L 39.06 12.01 L 40.72 12.53 L 42.34 13.20 L 43.91 14.00 L 45.41 14.93 L 46.85 15.99 L 48.20 17.17 L 49.45 18.46 L 50.61 19.86 L 51.65 21.36 L 52.57 22.95 L 53.36 24.61 L 54.01 26.35 L 54.52 28.14 L 54.89 29.98 L 55.10 31.85 L 55.16 33.75 L 55.07 35.65 L 54.82 37.55 L 54.41 39.44 L 53.84 41.29 L 53.12 43.10 L 52.25 44.85 L 51.24 46.54 L 50.08 48.15 L 48.79 49.66 L 47.38 51.07 L 45.84 52.36 L 44.19 53.54 L 42.45 54.57 L 40.62 55.47 L 38.71 56.22 L 36.73 56.81 L 34.71 57.24 L 32.64 57.50 L 30.55 57.59 L 28.45 57.52 L 26.35 57.26 L 24.27 56.84 L 22.22 56.24 L 20.22 55.48 L 18.28 54.55 L 16.41 53.46" stroke="url(#coil)" stroke-width="6.5" stroke-linecap="round"/>
</svg>